<mxfile host="app.diagrams.net" modified="2021-03-30T03:09:18.117Z" agent="5.0 (Windows NT 10.0; Win64; x64) AppleWebKit/537.36 (KHTML, like Gecko) Chrome/89.0.4389.90 Safari/537.36" etag="ppzRvCfMcul2U1s4iozU" version="14.5.3" type="github">
  <diagram id="prtHgNgQTEPvFCAcTncT" name="Page-1">
    <mxGraphModel dx="1422" dy="763" grid="1" gridSize="10" guides="1" tooltips="1" connect="1" arrows="1" fold="1" page="1" pageScale="1" pageWidth="827" pageHeight="1169" background="none" math="0" shadow="1">
      <root>
        <mxCell id="0" />
        <mxCell id="1" parent="0" />
        <mxCell id="G1_WOoxedwc3QS_TZZ5C-5" style="edgeStyle=orthogonalEdgeStyle;rounded=0;orthogonalLoop=1;jettySize=auto;html=1;entryX=0.5;entryY=1;entryDx=0;entryDy=0;fontSize=16;" edge="1" parent="1" source="G1_WOoxedwc3QS_TZZ5C-1" target="G1_WOoxedwc3QS_TZZ5C-3">
          <mxGeometry relative="1" as="geometry">
            <Array as="points">
              <mxPoint x="395" y="170" />
              <mxPoint x="270" y="170" />
            </Array>
          </mxGeometry>
        </mxCell>
        <mxCell id="G1_WOoxedwc3QS_TZZ5C-6" style="edgeStyle=orthogonalEdgeStyle;rounded=0;orthogonalLoop=1;jettySize=auto;html=1;exitX=0.5;exitY=1;exitDx=0;exitDy=0;entryX=0.5;entryY=1;entryDx=0;entryDy=0;fontSize=16;" edge="1" parent="1" source="G1_WOoxedwc3QS_TZZ5C-1" target="G1_WOoxedwc3QS_TZZ5C-4">
          <mxGeometry relative="1" as="geometry" />
        </mxCell>
        <mxCell id="G1_WOoxedwc3QS_TZZ5C-1" value="&lt;p class=&quot;MsoNormal&quot;&gt;&lt;span style=&quot;font-size: 12.0000pt&quot;&gt;白安河施工安全监控与预警系统&lt;/span&gt;&lt;/p&gt;" style="rounded=0;whiteSpace=wrap;html=1;" vertex="1" parent="1">
          <mxGeometry x="240" y="80" width="310" height="60" as="geometry" />
        </mxCell>
        <mxCell id="G1_WOoxedwc3QS_TZZ5C-3" value="人&#xa;员&#xa;安&#xa;全&#xa;智&#xa;能&#xa;识&#xa;别&#xa;与&#xa;预&#xa;警" style="rounded=0;direction=west;labelBorderColor=none;labelBackgroundColor=none;horizontal=1;verticalAlign=middle;fontSize=16;" vertex="1" parent="1">
          <mxGeometry x="240" y="200" width="60" height="250" as="geometry" />
        </mxCell>
        <mxCell id="G1_WOoxedwc3QS_TZZ5C-4" value="桥&#xa;梁&#xa;应&#xa;力&#xa;情&#xa;况&#xa;分&#xa;析&#xa;与&#xa;预&#xa;警" style="rounded=0;direction=west;labelBorderColor=none;labelBackgroundColor=none;horizontal=1;verticalAlign=middle;fontSize=16;" vertex="1" parent="1">
          <mxGeometry x="490" y="200" width="60" height="250" as="geometry" />
        </mxCell>
      </root>
    </mxGraphModel>
  </diagram>
</mxfile>
